<svg width="48" height="48" viewBox="0 0 48 48" fill="none" xmlns="http://www.w3.org/2000/svg">
<rect width="48" height="48" rx="12" fill="white"/>
<g clip-path="url(#clip0_83_497)">
<path d="M12.9262 16.8171C13.1654 15.1975 13.9875 13.7251 15.239 12.6638C15.466 12.4736 15.6992 12.3079 15.9446 12.1484C15.147 12.5165 14.4231 13.038 13.8157 13.6944C12.693 14.9092 12.0489 16.4981 11.9998 18.1546C11.8771 23.0257 13.7666 27.4797 16.9077 30.7374C16.5274 30.2527 16.1716 29.7558 15.8464 29.2343C13.417 25.7374 12.2513 21.3509 12.9262 16.8171Z" fill="#00BCC5"/>
<path d="M35.7674 29.0984C35.565 28.7303 35.2521 28.4359 34.8656 28.2579L29.2337 25.6751C28.9392 25.5402 28.614 25.4788 28.295 25.5033C27.9699 25.5279 27.657 25.626 27.3871 25.7978L25.9883 26.6813L27.0803 26.1659C27.3686 26.0309 27.6877 25.9635 28.0067 25.9819C28.3257 26.0003 28.6386 26.0984 28.9085 26.2641L34.1233 29.4727C34.4791 29.6935 34.749 30.0187 34.9024 30.4052C35.0558 30.7917 35.0803 31.2211 34.9699 31.6199C34.5282 33.1782 33.5404 34.5279 32.1907 35.4175C32.6999 35.1721 33.1846 34.8714 33.6263 34.5033C34.8963 33.442 35.7367 31.9512 35.9883 30.3132C36.0496 29.896 35.976 29.4727 35.7736 29.0984H35.7674Z" fill="#00BCC5"/>
<path d="M34.9636 31.6256C35.074 31.2268 35.0495 30.7974 34.8961 30.4109C34.7427 30.0244 34.4728 29.6992 34.1169 29.4784L28.9022 26.2698C28.6323 26.1041 28.3194 26.006 28.0004 25.9876C27.6814 25.9692 27.3623 26.0305 27.074 26.1716L25.982 26.6869L25.6875 26.871L26.8102 26.4784C27.1108 26.3741 27.436 26.3434 27.7489 26.3925C28.0679 26.4415 28.3623 26.5704 28.6139 26.7667L33.4605 30.5029C33.7918 30.7544 34.0249 31.1103 34.1415 31.5152C34.2519 31.9139 34.2335 32.3434 34.0801 32.7299C33.6446 33.8281 32.9268 34.779 32.0127 35.5029C32.0679 35.4784 32.1231 35.4477 32.1722 35.4231C33.5219 34.5336 34.5096 33.1839 34.9513 31.6256H34.9636Z" fill="#003099"/>
<path d="M12.835 16.7973C12.1663 21.3311 13.4178 25.736 15.8534 29.2329C13.3994 25.3433 12.4853 20.4906 13.7184 15.693C14.0865 14.2636 14.9209 12.9998 16.0743 12.0918C16.0313 12.1102 15.9884 12.1286 15.9454 12.147C15.7 12.3065 15.4608 12.4722 15.2399 12.6623C13.9884 13.7176 13.0804 15.1777 12.8411 16.7973H12.835Z" fill="#003099"/>
<path d="M27.5031 36.4602C23.8344 35.9142 20.6074 34.2516 18.1105 31.8651C17.6933 31.5093 17.2946 31.1289 16.9142 30.7363C19.178 33.6013 22.362 35.7792 26.1657 36.7608C27.7485 37.1657 29.4295 36.9817 30.8896 36.2394C31.2639 36.0492 31.6136 35.8283 31.9387 35.5768C30.6074 36.3743 29.043 36.6934 27.5031 36.4664V36.4602Z" fill="#FECE00"/>
<path d="M20.859 11.4911C21.1842 11.7488 21.4173 12.1046 21.5278 12.5095L23.0922 18.4359C23.1719 18.7426 23.1781 19.0616 23.1044 19.3745C23.0308 19.6874 22.8836 19.9696 22.6689 20.2027L21.5768 21.4297L23.0492 20.0862C23.2824 19.8715 23.4603 19.6015 23.5646 19.307C23.6689 19.0064 23.6995 18.6874 23.6505 18.3745L22.7179 12.3193C22.6566 11.9083 22.4603 11.5279 22.1597 11.2396C21.8652 10.9512 21.4787 10.761 21.0676 10.7058C19.4419 10.5034 17.8038 10.9021 16.448 11.8224C16.3805 11.8653 16.3192 11.9205 16.2578 11.9696C17.3008 11.3745 18.4971 11.0678 19.7118 11.0923C20.129 11.1046 20.5278 11.2518 20.8529 11.5095L20.859 11.4911Z" fill="#FECE00"/>
<path d="M18.1092 31.8663C17.2687 31.0626 16.5141 30.1792 15.8516 29.2344C16.1767 29.7558 16.5325 30.2528 16.9129 30.7374C17.2933 31.1301 17.6921 31.5104 18.1092 31.8663Z" fill="#FECE00"/>
<path d="M29.0807 36.0922C24.8843 35.9879 21.0684 34.4112 18.1113 31.8652C20.6083 34.2517 23.7064 35.9879 27.3751 36.5339C28.915 36.7609 30.6083 36.3683 31.9396 35.5708C31.9702 35.5462 31.9948 35.5217 32.0254 35.4971C31.1052 35.9082 30.0991 36.1168 29.0807 36.0922Z" fill="#F43800"/>
<path d="M18.1225 11.5463C18.5396 11.5034 18.963 11.6015 19.3249 11.8224C19.6869 12.0432 19.963 12.3684 20.1225 12.761L22.4231 18.5218C22.5396 18.8224 22.5887 19.1414 22.5519 19.4604C22.5151 19.7794 22.4047 20.0862 22.2206 20.35L21.2943 21.6935L21.5887 21.4236L22.6808 20.1966C22.8893 19.9573 23.0427 19.6751 23.1163 19.3684C23.19 19.0616 23.1838 18.7365 23.1041 18.4297L21.5396 12.5034C21.4354 12.0984 21.1961 11.7426 20.8709 11.4849C20.5458 11.2273 20.1409 11.08 19.7298 11.0678C18.509 11.0432 17.3188 11.35 16.2758 11.9451C16.2145 11.9942 16.147 12.0371 16.0918 12.0862C16.736 11.7978 17.4292 11.6076 18.1409 11.534L18.1225 11.5463Z" fill="#F43800"/>
<path d="M23.4835 27.7313C21.821 26.0442 21.0909 24.7619 20.3056 22.9889C20.9682 22.173 21.6001 21.2834 22.2136 20.3448C22.3976 20.081 22.5081 19.7742 22.5449 19.4552C22.5817 19.1362 22.5387 18.811 22.416 18.5166L20.1154 12.7558C19.9559 12.3632 19.6798 12.038 19.3179 11.8172C18.9559 11.5963 18.5387 11.5043 18.1154 11.5411C17.4038 11.6147 16.7105 11.8049 16.0664 12.0932C14.913 13.0012 14.0786 14.265 13.7105 15.6945C12.4774 20.492 13.3915 25.3386 15.8455 29.2282C16.5081 30.1791 17.2627 31.0626 18.1032 31.8601C21.0602 34.4061 24.8762 35.9828 29.0725 36.0871C30.097 36.1116 31.097 35.9031 32.0173 35.492C32.9314 34.7681 33.643 33.8172 34.0848 32.719C34.2381 32.3325 34.2565 31.9031 34.1461 31.5043C34.0357 31.1055 33.7964 30.7497 33.4651 30.492L28.6185 26.7558C28.367 26.5595 28.0664 26.4307 27.7535 26.3816C27.4406 26.3325 27.1154 26.357 26.8148 26.4675C25.4713 26.8233 24.4835 27.4184 23.4835 27.7251V27.7313Z" fill="black"/>
</g>
<defs>
<clipPath id="clip0_83_497">
<rect width="24" height="26.3252" fill="white" transform="translate(12 10.6445)"/>
</clipPath>
</defs>
</svg>
