<svg viewBox="0 0 120 40" xmlns="http://www.w3.org/2000/svg"><path d="m110.1 0h-100.6c-.3 0-.7 0-1.1 0-.3 0-.6 0-.9 0-.7 0-1.3 0-2 .2-.7.1-1.3.3-1.9.6s-1.1.7-1.6 1.2-.9 1-1.2 1.6-.5 1.2-.6 1.9c-.2.7-.2 1.4-.2 2v.9 23.1.9c0 .7 0 1.3.2 2 .1.7.3 1.3.6 1.9s.7 1.1 1.2 1.6 1 .9 1.6 1.2 1.2.5 1.9.6 1.3.2 2 .2h.9 1.1 100.6 1.1.9c.7 0 1.3 0 2-.2.7-.1 1.3-.3 1.9-.6s1.1-.7 1.6-1.2.9-1 1.2-1.6.5-1.2.6-1.9.2-1.3.2-2c0-.3 0-.6 0-.9 0-.4 0-.7 0-1.1v-20.9c0-.4 0-.7 0-1.1 0-.3 0-.6 0-.9 0-.7 0-1.3-.2-2-.1-.7-.3-1.3-.6-1.9-.6-1.2-1.6-2.2-2.8-2.8-.6-.3-1.2-.5-1.9-.6s-1.3-.2-2-.2c-.3 0-.6 0-.9 0-.4 0-.7 0-1.1 0z" fill="#a6a6a6"/><path d="m8.4 39.1c-.3 0-.6 0-.9 0-.6 0-1.3 0-1.9-.2-.6 0-1.1-.3-1.7-.5-.5-.3-1-.6-1.4-1s-.8-.9-1-1.4c-.3-.5-.4-1.1-.5-1.7s-.2-1.2-.2-1.9c0-.2 0-.9 0-.9v-23.1s0-.7 0-.9c0-.6 0-1.3.2-1.9 0-.6.3-1.1.5-1.7.3-.5.6-1 1-1.4s.9-.8 1.4-1c.5-.3 1.1-.4 1.7-.5s1.2-.2 1.9-.2h.9s102.8 0 102.8 0h.9c.6 0 1.2 0 1.9.2.6 0 1.1.3 1.7.5 1 .5 1.9 1.4 2.4 2.4.3.5.4 1.1.5 1.6.1.6.2 1.3.2 1.9v.9 1.1 20.9 1.1.9c0 .6 0 1.2-.2 1.9 0 .6-.3 1.1-.5 1.7-.3.5-.6 1-1 1.4s-.9.8-1.4 1c-.5.3-1.1.5-1.7.5-.6.1-1.2.2-1.9.2-.3 0-.6 0-.9 0h-1.1s-101.7 0-101.7 0z"/><g fill="#fff"><path d="m24.8 20.3c0-1.7.9-3.3 2.4-4.2-.9-1.3-2.4-2.1-4-2.2-1.7-.2-3.3 1-4.2 1s-2.2-1-3.6-1c-1.9 0-3.6 1.1-4.5 2.7-1.9 3.3-.5 8.3 1.4 11 .9 1.3 2 2.8 3.4 2.8s1.9-.9 3.6-.9 2.1.9 3.6.9 2.4-1.3 3.3-2.7c.7-.9 1.2-2 1.5-3.1-1.8-.7-2.9-2.5-2.9-4.4z"/><path d="m22 12.2c.8-1 1.2-2.2 1.1-3.5-1.2.1-2.4.7-3.2 1.7-.8.9-1.2 2.1-1.1 3.4 1.3 0 2.4-.6 3.2-1.5z"/><path d="m42.3 27.1h-4.7l-1.1 3.4h-2l4.5-12.4h2.1l4.5 12.4h-2l-1.1-3.4zm-4.2-1.5h3.8l-1.8-5.4-1.9 5.4z"/><path d="m55.2 26c0 2.8-1.5 4.6-3.8 4.6-1.2 0-2.3-.6-2.8-1.6v4.5h-1.9v-12h1.8v1.5c.6-1 1.7-1.6 2.9-1.6 2.3 0 3.8 1.8 3.8 4.6zm-2 0c0-1.8-.9-3-2.4-3s-2.4 1.2-2.4 3 1 3 2.4 3 2.4-1.2 2.4-3z"/><path d="m65.1 26c0 2.8-1.5 4.6-3.8 4.6-1.2 0-2.3-.6-2.8-1.6v4.5h-1.9v-12h1.8v1.5c.6-1 1.7-1.6 2.9-1.6 2.3 0 3.8 1.8 3.8 4.6zm-1.9 0c0-1.8-.9-3-2.4-3s-2.4 1.2-2.4 3 1 3 2.4 3 2.4-1.2 2.4-3z"/><path d="m71.7 27c.1 1.2 1.3 2 3 2s2.7-.8 2.7-1.9-.7-1.5-2.3-1.9l-1.6-.4c-2.3-.6-3.3-1.6-3.3-3.3s1.9-3.6 4.5-3.6 4.4 1.5 4.5 3.6h-1.9c-.1-1.2-1.1-2-2.6-2s-2.5.8-2.5 1.9.7 1.4 2.3 1.8l1.4.3c2.5.6 3.6 1.6 3.6 3.4s-1.9 3.8-4.8 3.8-4.6-1.4-4.7-3.7h1.9z"/><path d="m83.3 19.3v2.1h1.7v1.5h-1.7v5c0 .8.3 1.1 1.1 1.1h.6v1.5c-.3 0-.7 0-1 0-1.8 0-2.5-.7-2.5-2.4v-5.2h-1.3v-1.5h1.3v-2.1h1.9z"/><path d="m86.1 26c0-2.8 1.7-4.6 4.3-4.6s4.3 1.8 4.3 4.6-1.7 4.6-4.3 4.6-4.3-1.8-4.3-4.6zm6.7 0c0-2-.9-3.1-2.4-3.1s-2.4 1.2-2.4 3.1.9 3.1 2.4 3.1 2.4-1.1 2.4-3.1z"/><path d="m96.2 21.4h1.8v1.5c.2-1 1.2-1.7 2.2-1.6h.6v1.7c-.3 0-.6-.1-.8-.1-1 0-1.9.8-1.9 1.8v.3 5.4h-1.9v-9.1z"/><path d="m109.4 27.8c-.2 1.6-1.9 2.8-3.9 2.8s-4.3-1.8-4.3-4.6 1.6-4.7 4.2-4.7 4.1 1.7 4.1 4.5v.6h-6.4c-.1 1.4.8 2.6 2.1 2.7h.3c.9 0 1.8-.4 2.1-1.3zm-6.3-2.7h4.5c0-1.2-.9-2.2-2.1-2.3 0 0-.1 0-.2 0-1.3 0-2.3 1-2.3 2.3z"/><path d="m37.8 8.7c1.5-.1 2.7 1 2.8 2.4v.5c0 1.9-1 3-2.8 3h-2.2v-6h2.2zm-1.2 5.2h1.1c1 0 1.9-.7 2-1.8 0-.1 0-.3 0-.4.1-1-.6-2-1.6-2.1-.1 0-.2 0-.4 0h-1.1z"/><path d="m41.7 12.4c-.1-1.2.7-2.2 1.9-2.3s2.2.7 2.3 1.9v.4c.1 1.2-.7 2.2-1.9 2.3s-2.2-.7-2.3-1.9c0-.1 0-.3 0-.4zm3.3 0c0-1-.4-1.5-1.2-1.5s-1.2.6-1.2 1.5.4 1.6 1.2 1.6 1.2-.6 1.2-1.6z"/><path d="m51.6 14.7h-.9l-.9-3.3-.9 3.3h-.9l-1.2-4.5h.9l.8 3.4.9-3.4h.9l.9 3.4.8-3.4h.9l-1.2 4.5z"/><path d="m53.9 10.2h.9v.7c.2-.5.8-.8 1.3-.8.8 0 1.5.5 1.6 1.4v.3 2.9h-.9v-2.7c0-.7-.3-1.1-1-1.1-.6 0-1.1.4-1.1 1v.2 2.6h-.9v-4.5z"/><path d="m59.1 8.4h.9v6.3h-.9z"/><path d="m61.2 12.4c-.1-1.2.7-2.2 1.9-2.3s2.2.7 2.3 1.9v.4c.1 1.2-.7 2.2-1.9 2.3s-2.2-.7-2.3-1.9c0-.1 0-.3 0-.4zm3.4 0c0-1-.4-1.5-1.2-1.5s-1.2.6-1.2 1.5.4 1.6 1.2 1.6 1.2-.6 1.2-1.6z"/><path d="m66.4 13.4c0-.8.6-1.3 1.7-1.3h1.2v-.5c0-.5-.3-.7-.9-.7s-.8.2-.9.5h-.9c0-.8.8-1.3 1.8-1.3s1.8.6 1.8 1.5v3.1h-.9v-.6c-.3.5-.8.7-1.4.7-.7 0-1.4-.5-1.5-1.2 0 0 0 0 0-.1zm2.9-.4v-.4h-1.1c-.6.1-.9.3-.9.7s.4.6.8.6c.6 0 1.1-.4 1.2-.9z"/><path d="m71.3 12.4c0-1.4.7-2.3 1.9-2.3.6 0 1.1.3 1.4.8v-2.5h.9v6.3h-.9v-.7c-.3.5-.8.8-1.4.8-1.1 0-1.9-.9-1.9-2.3zm1 0c0 1 .5 1.5 1.2 1.5s1.2-.6 1.2-1.5-.5-1.5-1.2-1.5-1.2.6-1.2 1.5z"/><path d="m79.2 12.4c-.1-1.2.7-2.2 1.9-2.3s2.2.7 2.3 1.9v.4c.1 1.2-.7 2.2-1.9 2.3s-2.2-.7-2.3-1.9c0-.1 0-.3 0-.4zm3.4 0c0-1-.4-1.5-1.2-1.5s-1.2.6-1.2 1.5.4 1.6 1.2 1.6 1.2-.6 1.2-1.6z"/><path d="m84.7 10.2h.9v.7c.2-.5.8-.8 1.3-.8.8 0 1.5.5 1.6 1.4v.3 2.9h-.9v-2.7c0-.7-.3-1.1-1-1.1-.6 0-1.1.4-1.1 1v.2 2.6h-.9v-4.5z"/><path d="m93.5 9.1v1.1h1v.7h-1v2.3c0 .5.2.7.6.7h.3v.7c-.2 0-.3 0-.5 0-1 0-1.4-.3-1.4-1.2v-2.5h-.7v-.7h.7v-1.1h.9z"/><path d="m95.7 8.4h.9v2.5c.2-.5.8-.9 1.4-.8.8 0 1.5.6 1.6 1.4v.3 2.9h-.9v-2.7c0-.7-.3-1.1-1-1.1-.6 0-1.1.4-1.1 1v.2 2.6h-.9z"/><path d="m104.8 13.5c-.2.8-1.1 1.4-2 1.3-1.1 0-2.1-.9-2.1-2 0-.1 0-.2 0-.3-.2-1.1.6-2.2 1.8-2.3h.3c1.3 0 2 .9 2 2.3v.3h-3.2c0 .7.4 1.3 1.1 1.3h.1c.4 0 .9-.2 1.1-.5h.9zm-3.2-1.5h2.3c0-.6-.4-1.1-1-1.2 0 0 0 0-.1 0-.6 0-1.2.5-1.2 1.1z"/></g></svg>