<svg width="97" height="32" viewBox="0 0 97 32" fill="none" xmlns="http://www.w3.org/2000/svg">
<path d="M96.0616 9.5095V31.5493H91.0136V27.6732C89.4361 30.4225 86.7319 32 83.2163 32C77.312 32 72.6697 26.8619 72.6697 20.5069C72.6697 14.1518 77.312 9.05878 83.2163 9.05878C86.7319 9.05878 89.4361 10.6363 91.0136 13.3856V9.5095H96.0616ZM84.298 27.2225C88.1291 27.2225 91.0136 24.3379 91.0136 20.5069C91.0136 16.7209 88.1291 13.8363 84.298 13.8363C80.5571 13.8363 77.6275 16.811 77.6275 20.5069C77.6275 24.2478 80.5571 27.2225 84.298 27.2225Z" fill="white"/>
<path d="M60.0332 31.5491V9.50931H65.0361V12.5741C66.253 10.5009 68.4164 9.05859 70.9855 9.05859C71.6616 9.05859 72.3827 9.19381 73.0588 9.32902V13.9263C72.3376 13.746 71.5714 13.6108 70.8503 13.6108C67.6502 13.6108 65.0361 15.8193 65.0361 19.7855V31.5491H60.0332Z" fill="white"/>
<path d="M55.8744 9.50931V31.5491H50.8264V27.673C49.2489 30.4223 46.5446 31.9998 43.0291 31.9998C37.1248 31.9998 32.4824 26.8617 32.4824 20.5067C32.4824 14.1516 37.1248 9.05859 43.0291 9.05859C46.5446 9.05859 49.2489 10.6361 50.8264 13.3854V9.50931H55.8744ZM44.1108 27.2223C47.9418 27.2223 50.8264 24.3377 50.8264 20.5067C50.8264 16.7207 47.9418 13.8361 44.1108 13.8361C40.3699 13.8361 37.4403 16.8108 37.4403 20.5067C37.4403 24.2476 40.3699 27.2223 44.1108 27.2223Z" fill="white"/>
<path d="M24.6367 31.5498V0H29.6396V31.5498H24.6367Z" fill="white"/>
<path d="M11.403 32C4.95783 32 0 27.0872 0 20.5519C0 14.0166 4.95783 9.05878 11.403 9.05878C16.7214 9.05878 21.2736 12.6194 21.9497 17.3969H16.8115C16.2707 15.3687 14.0171 13.8814 11.403 13.8814C7.75224 13.8814 4.95783 16.766 4.95783 20.5519C4.95783 24.2928 7.75224 27.1774 11.403 27.1774C13.9721 27.1774 16.3158 25.69 16.8566 23.4816H21.9497C21.4088 28.4845 16.7665 32 11.403 32Z" fill="white"/>
</svg>
