<svg width="286" height="44" viewBox="0 0 286 44" fill="none" xmlns="http://www.w3.org/2000/svg">
<path fill-rule="evenodd" clip-rule="evenodd" d="M22.9362 11.7177C22.2502 11.7177 21.6779 11.6401 21.0297 11.5641V22.8204C21.0297 23.0883 20.9914 23.1643 20.8378 23.2784L14.4271 27.3622C15.3815 27.8202 16.5262 28.1264 17.7106 28.1264C21.7539 28.1264 26.3318 25.9115 28.4706 20.3793C28.5844 20.0732 28.8506 19.9971 28.8506 20.5312V20.9133C28.8506 26.9796 24.2328 32.4358 17.4045 32.4358C9.96357 32.4358 5.49988 26.8261 5.49988 20.9892C5.49988 16.6017 7.90063 12.5185 13.3585 10.8016C13.5886 10.7235 13.6269 10.8377 13.4728 10.9535C11.0698 12.8224 9.77173 15.8758 9.77173 18.9286C9.77173 22.1722 11.0698 25.3775 13.9691 27.096L15.5718 25.8732C16.1079 25.4535 16.22 25.073 16.22 24.4608V10.5715C14.4654 9.92324 12.9027 9.5411 11.4503 9.5411C9.46725 9.5411 7.67271 10.4174 5.9181 12.5562C5.72791 12.7847 5.61197 12.7847 5.61197 12.5562C5.84209 8.24453 9.69517 5.80176 13.5111 5.80176C17.9003 5.80176 21.9441 7.9406 26.3716 7.9406C27.9344 7.9406 29.5387 7.59465 30.8736 6.87041C31.0638 6.7944 31.1015 6.94631 31.0255 7.09833C29.6529 10.5337 26.2935 11.7177 22.9362 11.7177ZM43.6964 32.0936C43.5423 32.2456 43.5423 32.2079 43.428 32.1319L40.3753 29.4229C40.0691 29.1545 39.9171 28.9266 39.9171 28.4303V17.9742C39.9171 17.8605 39.9171 17.7447 39.7647 17.6304L38.7343 16.7138C38.6185 16.6399 38.4664 16.6017 38.3145 16.6777L36.3696 17.5921V27.4397C36.3696 27.5918 36.3298 27.7442 36.4834 27.858L37.3617 28.6205C37.5903 28.8108 37.9701 29.0408 38.3145 28.9266L38.6185 28.8108C39.0005 28.6582 39.0787 28.8867 38.8486 29.0785L35.3392 32.0936C35.1851 32.2456 35.147 32.2079 35.0332 32.1319L31.9416 29.3847C31.5617 29.0785 31.5617 29.0026 31.5617 28.5063V11.5641C31.5617 11.3739 31.5617 11.334 31.3698 11.1821L30.9878 10.8377C30.6073 10.4955 30.4554 10.5715 29.959 10.8016L29.1949 11.1438C29.0807 11.1821 28.9664 11.0295 29.1566 10.8377L33.2004 7.44219C33.3545 7.29017 33.3545 7.32845 33.4683 7.40446L35.911 9.65693C36.2172 9.96141 36.3696 10.1517 36.3696 10.6475V17.0198L41.4433 13.815C41.5974 13.7385 41.7494 13.7385 41.8637 13.8528L44.3447 16.1436C44.6868 16.4481 44.7628 16.6777 44.7628 17.0581V27.5142C44.7628 27.7061 44.7628 27.7442 44.9547 27.8962L45.909 28.6965C46.2895 29.0408 46.4415 28.9643 46.9378 28.7363L47.7019 28.3926C47.8157 28.3543 47.932 28.5063 47.7397 28.6965L43.6964 32.0936ZM59.9503 19.4632L53.1959 23.6989V26.9419C53.1959 27.2458 53.2342 27.3622 53.502 27.4759L55.6769 28.6205C56.0569 28.8108 56.7073 29.0026 57.0894 28.7725L59.1119 27.5918C59.454 27.3999 59.7224 27.5142 59.5306 27.6683L53.9983 32.1319C53.8825 32.2456 53.9223 32.2079 53.7699 32.1319L48.846 29.5366C48.4639 29.3469 48.3503 29.2688 48.3503 28.7363V16.6777C48.3503 16.4858 48.4278 16.4098 48.6542 16.3338L56.7073 13.7385C56.8216 13.7009 56.9353 13.6626 57.0112 13.815L60.0263 19.1571C60.1023 19.2729 60.1023 19.3872 59.9503 19.4632ZM53.2741 15.7615L53.1959 15.7977V23.2041L55.8672 20.9892C56.0208 20.8756 56.0208 20.7974 55.9448 20.6853L53.2741 15.7615ZM87.5334 27.3239L82.0389 32.0559C81.8853 32.1696 81.771 32.2456 81.6191 32.1696C78.3356 30.5292 75.5129 29.6126 72.6515 29.6126C70.2846 29.6126 67.9578 30.4134 65.363 32.1319C65.1329 32.2839 64.9809 32.2456 65.1329 31.98C66.5075 29.7651 68.3398 27.4397 70.629 26.3696C70.6667 26.2176 70.7066 25.7213 70.7066 25.0332V13.815C70.7066 13.6626 70.7831 13.5866 70.9351 13.5106L75.2844 10.8776C74.3301 11.0678 73.262 11.2219 72.3453 11.2219C68.3781 11.2219 66.3551 9.23717 65.6292 6.10789C65.5909 5.95378 65.6669 5.91605 65.7812 5.95378C67.8057 6.94631 69.4843 7.29017 71.1253 7.29017C73.872 7.29017 77.8016 5.80176 80.2067 5.80176C85.0523 5.80176 87.7252 7.82477 87.7252 14.4272V26.9036C87.7252 27.096 87.6471 27.2097 87.5334 27.3239ZM82.9157 14.4272C82.9157 10.9158 81.8093 9.96141 80.0924 9.96141C78.8319 9.96141 77.2293 10.4577 75.5129 10.8377V22.2858C75.5129 22.4782 75.437 22.6302 75.3227 22.7083L70.7831 26.3297C71.9633 25.8355 73.262 25.607 74.5585 25.607C77.3435 25.607 80.2843 26.6358 82.6495 27.7442C82.8397 27.858 82.9157 27.7442 82.9157 27.5518V14.4272ZM101.39 32.0936C101.238 32.2456 101.2 32.2079 101.086 32.1319L97.6128 29.0785L93.4914 32.1319C93.3394 32.2456 93.3011 32.2079 93.1492 32.0936L90.5161 29.7269C90.0958 29.3847 90.0581 29.3066 90.0581 28.8484V17.7079C90.0581 17.5161 90.2101 17.4785 90.286 17.4402L99.1395 13.7768C99.2915 13.7009 99.4434 13.7009 99.5975 13.8528L101.963 16.2195C102.305 16.5617 102.422 16.7541 102.422 16.9822V27.7442L103.109 28.3543C103.947 29.0785 104.061 29.0408 104.443 28.8484L104.978 28.5822C105.322 28.3926 105.588 28.5445 105.282 28.8108L101.39 32.0936ZM97.6128 17.8982C97.6128 17.6681 97.573 17.5544 97.3849 17.3642L96.0102 15.9916C95.9342 15.9135 95.9342 15.9533 95.8183 15.9916L94.8639 16.4098V27.4397C94.8639 27.8202 94.9421 28.0105 95.2099 28.2401L95.7063 28.6965C96.0484 29.0026 96.4682 29.1545 96.9645 28.9266L97.6128 28.6205V17.8982ZM110.282 32.0936C110.127 32.2456 110.09 32.2079 109.975 32.1319L106.887 29.3847C106.504 29.0785 106.504 29.0026 106.504 28.5063V17.9742C106.504 17.7845 106.504 17.7447 106.314 17.5921L105.932 17.2499C105.55 16.9061 105.398 16.9822 104.902 17.2101L104.137 17.5544C104.023 17.5921 103.909 17.4402 104.099 17.2499L108.145 13.8528C108.299 13.7009 108.299 13.7385 108.411 13.815L110.854 16.0654C111.16 16.3715 111.312 16.5617 111.312 17.0581V27.4397C111.312 27.5918 111.274 27.7442 111.426 27.858L112.304 28.6205C112.535 28.8108 112.915 29.0408 113.257 28.9266L113.563 28.8108C113.945 28.6582 114.021 28.8867 113.793 29.0785L110.282 32.0936ZM108.335 12.9006C108.223 13.0142 108.183 12.9765 108.069 12.9006L105.167 10.3435C105.091 10.2653 105.091 10.1894 105.206 10.0751L108.069 7.55637C108.183 7.48036 108.223 7.48036 108.335 7.55637L111.236 10.1134C111.35 10.1894 111.35 10.2653 111.236 10.3435L108.335 12.9006ZM118.867 32.0936C118.715 32.2456 118.677 32.2079 118.563 32.1319L115.469 29.3847C115.089 29.0785 115.089 29.0026 115.089 28.5063V11.5641C115.089 11.3739 115.089 11.334 114.899 11.1821L114.517 10.8377C114.135 10.4955 113.983 10.5715 113.487 10.8016L112.724 11.1438C112.608 11.1821 112.494 11.0295 112.687 10.8377L116.73 7.44219C116.882 7.29017 116.882 7.32845 116.998 7.40446L119.439 9.65693C119.745 9.96141 119.897 10.1517 119.897 10.6475V27.4397C119.897 27.5918 119.859 27.7442 120.013 27.858L120.89 28.6205C121.118 28.8108 121.5 29.0408 121.842 28.9266L122.15 28.8108C122.531 28.6582 122.606 28.8867 122.378 29.0785L118.867 32.0936ZM136.23 34.7267L132.032 38.1222C131.918 38.2359 131.84 38.1998 131.766 38.1599C129.551 36.6715 127.798 35.9855 125.889 35.9855C124.553 35.9855 123.219 36.2512 121.5 36.7098C121.348 36.7497 121.31 36.6338 121.386 36.5196C123.179 33.8105 125.393 32.9721 127.454 32.9721C130.506 32.9721 133.368 34.8409 134.513 35.603L134.627 35.5269C134.931 34.8409 135.047 34.1904 135.047 33.5805C135.047 31.6356 133.445 30.0712 131.46 29.0785L127.376 32.0936C127.186 32.2079 127.148 32.2079 127.034 32.1319L124.287 29.6509C123.905 29.3066 123.905 29.3066 123.905 28.7725V18.0501C123.905 17.8605 123.905 17.8222 123.714 17.6681L123.179 17.2101C122.798 16.8679 122.646 16.9439 122.15 17.1723L121.386 17.5161C121.272 17.5544 121.158 17.4025 121.348 17.2101L125.393 13.815C125.546 13.6626 125.546 13.7009 125.659 13.7768L128.255 16.1436C128.559 16.4481 128.713 16.6399 128.713 17.1363V27.5518C128.713 27.7442 128.751 27.934 128.865 28.0482L129.781 28.8867C130.047 29.1545 130.543 29.0408 130.849 28.8867L131.46 28.6205V18.0124C131.46 17.8222 131.46 17.8222 131.27 17.6681L130.733 17.2101C130.353 16.8679 130.237 16.9061 129.703 17.0581L129.399 17.1363C129.285 17.1723 129.171 17.0198 129.361 16.8301L132.948 13.815C133.1 13.6626 133.1 13.7009 133.214 13.7768L135.809 16.1436C136.115 16.4481 136.267 16.6399 136.267 17.1363V27.172C137.87 28.3543 138.558 29.5366 138.558 30.7195C138.558 32.0559 137.908 33.3525 136.23 34.7267ZM162.33 11.7177C161.643 11.7177 161.071 11.6401 160.422 11.5641V22.8204C160.422 23.0883 160.383 23.1643 160.231 23.2784L153.822 27.3622C154.774 27.8202 155.919 28.1264 157.103 28.1264C161.147 28.1264 165.725 25.9115 167.861 20.3793C167.978 20.0732 168.246 19.9971 168.246 20.5312V20.9133C168.246 26.9796 163.628 32.4358 156.797 32.4358C149.356 32.4358 144.891 26.8261 144.891 20.9892C144.891 16.6017 147.296 12.5185 152.752 10.8016C152.98 10.7235 153.02 10.8377 152.866 10.9535C150.461 12.8224 149.164 15.8758 149.164 18.9286C149.164 22.1722 150.461 25.3775 153.362 27.096L154.965 25.9492C155.537 25.5693 155.615 25.149 155.615 24.5389V10.5715C153.858 9.92324 152.294 9.5411 150.845 9.5411C148.86 9.5411 147.068 10.4174 145.313 12.5562C145.121 12.7847 145.005 12.7847 145.005 12.5562C145.235 8.24453 149.089 5.80176 152.905 5.80176C157.294 5.80176 161.337 7.9406 165.763 7.9406C167.329 7.9406 168.93 7.59465 170.266 6.87041C170.458 6.7944 170.494 6.94631 170.42 7.09833C169.046 10.5337 165.687 11.7177 162.33 11.7177ZM181.637 19.4632L174.884 23.6989V26.9419C174.884 27.2458 174.922 27.3622 175.189 27.4759L177.363 28.6205C177.745 28.8108 178.396 29.0026 178.775 28.7725L180.798 27.5918C181.143 27.3999 181.408 27.5142 181.219 27.6683L175.684 32.1319C175.571 32.2456 175.608 32.2079 175.456 32.1319L170.535 29.5366C170.152 29.3469 170.038 29.2688 170.038 28.7363V16.6777C170.038 16.4858 170.112 16.4098 170.342 16.3338L178.396 13.7385C178.51 13.7009 178.623 13.6626 178.702 13.815L181.714 19.1571C181.793 19.2729 181.793 19.3872 181.637 19.4632ZM174.96 15.7615L174.884 15.7977V23.2041L177.555 20.9892C177.707 20.8756 177.707 20.7974 177.631 20.6853L174.96 15.7615ZM186.981 32.0936C186.827 32.2456 186.791 32.2079 186.677 32.1319L183.583 29.3847C183.203 29.0785 183.203 29.0026 183.203 28.5063V11.5641C183.203 11.3739 183.203 11.334 183.011 11.1821L182.631 10.8377C182.249 10.4955 182.095 10.5715 181.601 10.8016L180.837 11.1438C180.722 11.1821 180.607 11.0295 180.798 10.8377L184.842 7.44219C184.994 7.29017 184.994 7.32845 185.11 7.40446L187.553 9.65693C187.859 9.96141 188.011 10.1517 188.011 10.6475V27.4397C188.011 27.5918 187.971 27.7442 188.124 27.858L189.004 28.6205C189.231 28.8108 189.614 29.0408 189.956 28.9266L190.262 28.8108C190.644 28.6582 190.718 28.8867 190.49 29.0785L186.981 32.0936ZM202.893 19.4632L196.14 23.6989V26.9419C196.14 27.2458 196.176 27.3622 196.444 27.4759L198.619 28.6205C198.999 28.8108 199.649 29.0026 200.03 28.7725L202.053 27.5918C202.397 27.3999 202.663 27.5142 202.473 27.6683L196.939 32.1319C196.827 32.2456 196.864 32.2079 196.711 32.1319L191.789 29.5366C191.406 29.3469 191.291 29.2688 191.291 28.7363V16.6777C191.291 16.4858 191.368 16.4098 191.597 16.3338L199.649 13.7385C199.764 13.7009 199.878 13.6626 199.954 13.815L202.969 19.1571C203.045 19.2729 203.045 19.3872 202.893 19.4632ZM196.212 15.7615L196.14 15.7977V23.2041L198.811 20.9892C198.961 20.8756 198.961 20.7974 198.885 20.6853L196.212 15.7615ZM216.782 34.7267L212.584 38.1222C212.471 38.2359 212.395 38.1998 212.319 38.1599C210.104 36.6715 208.349 35.9855 206.442 35.9855C205.106 35.9855 203.769 36.2512 202.053 36.7098C201.9 36.7497 201.863 36.6338 201.939 36.5196C203.731 33.8105 205.946 32.9721 208.007 32.9721C211.06 32.9721 213.919 34.8409 215.065 35.603L215.18 35.5269C215.483 34.8409 215.6 34.1904 215.6 33.5805C215.6 31.6356 213.997 30.0712 212.012 29.0785L207.891 32.1319C207.739 32.2456 207.624 32.2079 207.511 32.0936L204.915 29.7269C204.533 29.3847 204.457 29.2326 204.457 28.8484V17.7079C204.457 17.5161 204.609 17.4785 204.686 17.4402L213.463 13.815C213.693 13.7009 213.843 13.7009 213.919 13.7768L216.364 16.2195C216.668 16.524 216.82 16.7541 216.82 17.0198V27.172C218.423 28.3543 219.111 29.5366 219.111 30.7195C219.111 32.0559 218.461 33.3525 216.782 34.7267ZM212.012 17.8222C212.012 17.6681 211.974 17.5544 211.822 17.4025L210.41 15.9916C210.334 15.9135 210.296 15.9533 210.18 15.9916L209.263 16.4098V27.3622C209.263 27.9723 209.419 28.0482 210.028 28.6205C210.372 28.9266 210.56 29.0408 210.906 29.0408C211.212 29.0408 211.706 28.8108 212.012 28.6205V17.8222ZM229.221 18.6608C229.031 18.8149 228.84 18.8909 228.651 18.8909C228.458 18.8909 228.266 18.8149 228.078 18.6608L225.749 16.6777L225.521 16.8679V27.4759C225.521 27.7061 225.521 27.7442 225.673 27.858L226.284 28.3926C226.932 28.9266 227.084 29.0026 227.772 28.7363L228.23 28.5445C228.535 28.4303 228.611 28.5822 228.421 28.7725L224.489 32.0936C224.339 32.2456 224.299 32.2079 224.185 32.1319L221.17 29.4229C220.828 29.1168 220.712 29.0026 220.712 28.5822V17.7079L219.797 16.7541C219.719 16.6777 219.683 16.6777 219.567 16.7541L218.423 17.4025C218.08 17.5921 217.965 17.3259 218.195 17.1363L222.124 13.815C222.276 13.7009 222.354 13.7009 222.43 13.7768L225.101 16.4098L227.734 13.815C227.887 13.7009 228 13.6626 228.152 13.815L230.175 15.6856C230.557 16.0277 230.785 16.2195 231.015 16.2195C231.167 16.2195 231.36 16.1436 231.59 15.9916L232.122 15.6457C232.466 15.4177 232.618 15.7615 232.428 15.9533L229.221 18.6608ZM243.302 32.0936C243.15 32.2456 243.11 32.2079 242.996 32.1319L239.523 29.0785L235.403 32.1319C235.251 32.2456 235.213 32.2079 235.059 32.0936L232.428 29.7269C232.008 29.3847 231.97 29.3066 231.97 28.8484V17.7079C231.97 17.5161 232.122 17.4785 232.198 17.4402L241.053 13.7768C241.204 13.7009 241.356 13.7009 241.508 13.8528L243.874 16.2195C244.219 16.5617 244.332 16.7541 244.332 16.9822V27.7442L245.019 28.3543C245.859 29.0785 245.975 29.0408 246.355 28.8484L246.889 28.5822C247.232 28.3926 247.5 28.5445 247.194 28.8108L243.302 32.0936ZM239.523 17.8982C239.523 17.6681 239.487 17.5544 239.296 17.3642L237.922 15.9916C237.846 15.9135 237.846 15.9533 237.73 15.9916L236.778 16.4098V27.4397C236.778 27.8202 236.854 28.0105 237.12 28.2401L237.616 28.6965C237.958 29.0026 238.38 29.1545 238.877 28.9266L239.523 28.6205V17.8982ZM261.275 29.3066L257.804 31.98C257.42 32.2839 257.343 32.2079 256.885 31.9417L253.262 29.7269V34.1904L254.291 35.071C254.406 35.1448 254.406 35.223 254.291 35.3372L251.277 38.1222C251.201 38.1599 251.125 38.2359 250.971 38.1222L247.614 35.4132C247.5 35.3372 247.54 35.2607 247.614 35.1448L248.454 34.1904V17.7845L247.614 16.7541C247.576 16.7138 247.54 16.7138 247.462 16.7541L246.316 17.3259C246.051 17.4785 245.859 17.2882 246.087 17.098L249.979 13.815C250.093 13.7009 250.247 13.7009 250.323 13.7768L253.146 16.5617L258.26 13.815C258.414 13.7385 258.528 13.7768 258.564 13.815L261.123 16.1819C261.313 16.3715 261.543 16.6777 261.543 17.0198V28.6965C261.543 28.9643 261.543 29.1168 261.275 29.3066ZM256.733 18.0124C256.733 17.7845 256.657 17.5921 256.505 17.4402L255.437 16.4098C255.361 16.3338 255.285 16.3338 255.169 16.3715L253.262 17.098V29.1928L254.33 29.5366C255.207 29.8029 255.589 29.7651 255.971 29.4229L256.353 29.0785C256.697 28.7725 256.733 28.4303 256.733 27.8202V18.0124ZM276.354 32.0936C276.2 32.2456 276.2 32.2079 276.086 32.1319L273.033 29.4229C272.729 29.1545 272.577 28.9266 272.577 28.4303V17.9742C272.577 17.8605 272.577 17.7447 272.423 17.6304L271.393 16.7138C271.278 16.6399 271.126 16.6017 270.975 16.6777L269.026 17.5921V27.4397C269.026 27.5918 268.988 27.7442 269.142 27.858L270.018 28.6205C270.248 28.8108 270.629 29.0408 270.975 28.9266L271.278 28.8108C271.661 28.6582 271.735 28.8867 271.506 29.0785L267.997 32.0936C267.845 32.2456 267.805 32.2079 267.691 32.1319L264.6 29.3847C264.22 29.0785 264.22 29.0026 264.22 28.5063V11.5641C264.22 11.3739 264.22 11.334 264.028 11.1821L263.646 10.8377C263.264 10.4955 263.112 10.5715 262.617 10.8016L261.853 11.1438C261.739 11.1821 261.623 11.0295 261.815 10.8377L265.858 7.44219C266.012 7.29017 266.012 7.32845 266.127 7.40446L268.569 9.65693C268.876 9.96141 269.026 10.1517 269.026 10.6475V17.0198L274.102 13.815C274.256 13.7385 274.406 13.7385 274.521 13.8528L277.003 16.1436C277.345 16.4481 277.421 16.6777 277.421 17.0581V27.5142C277.421 27.7061 277.421 27.7442 277.611 27.8962L278.568 28.6965C278.947 29.0408 279.099 28.9643 279.596 28.7363L280.36 28.3926C280.476 28.3543 280.588 28.5063 280.398 28.6965L276.354 32.0936Z" fill="white"/>
</svg>
