<svg width="18" height="19" viewBox="0 0 18 19" fill="none" xmlns="http://www.w3.org/2000/svg">
<path d="M0 8.60449V6.76758C0 5.58105 0.703125 5.01855 1.83691 5.01855H3.375C2.87402 4.51758 2.56641 3.84082 2.56641 3.05859C2.56641 1.2832 3.99023 0 5.76562 0C7.11035 0 8.26172 0.773438 8.68359 2.13574C9.10547 0.773438 10.2568 0 11.6016 0C13.377 0 14.8008 1.2832 14.8008 3.05859C14.8008 3.84082 14.4932 4.51758 13.9922 5.01855H15.5303C16.708 5.01855 17.3672 5.58105 17.3672 6.76758V8.60449C17.3672 9.61523 16.7871 10.0986 15.7852 10.0986H9.59766V5.01855H7.76953V3.81445C7.76953 2.61035 6.96094 1.80176 5.96777 1.80176C5.02734 1.80176 4.40332 2.37305 4.40332 3.28711C4.40332 4.22754 5.15918 5.01855 6.48633 5.01855H7.76953V10.0986H1.58203C0.588867 10.0986 0 9.61523 0 8.60449ZM11.3994 1.80176C10.4062 1.80176 9.59766 2.61035 9.59766 3.81445V5.01855H10.8809C12.1992 5.01855 12.9639 4.22754 12.9639 3.28711C12.9639 2.37305 12.3398 1.80176 11.3994 1.80176ZM1.18652 16.4883V11.25H7.76953V18.8525H3.62109C2.08301 18.8525 1.18652 18.0088 1.18652 16.4883ZM9.59766 18.8525V11.25H16.1807V16.4883C16.1807 18.0088 15.2754 18.8525 13.7461 18.8525H9.59766Z" fill="#021C18"/>
</svg>
