<svg viewBox="0 0 135 40" xmlns="http://www.w3.org/2000/svg"><rect height="40" rx="5" width="135"/><path d="m130 .8c2.3 0 4.2 1.9 4.2 4.2v30c0 2.3-1.9 4.2-4.2 4.2h-125c-2.3 0-4.2-1.9-4.2-4.2v-30c0-2.3 1.9-4.2 4.2-4.2zm0-.8h-125c-2.8 0-5 2.3-5 5v30c0 2.7 2.2 5 5 5h125c2.7 0 5-2.2 5-5v-30c0-2.7-2.3-5-5-5z" fill="#a6a6a6"/><g fill="#fff"><path d="m47.4 10.2c0 .8-.2 1.5-.7 2-.6.6-1.3.9-2.2.9s-1.6-.3-2.2-.9-.9-1.3-.9-2.2.3-1.6.9-2.2 1.3-.9 2.2-.9.8 0 1.2.3c.4.2.7.4.9.7l-.5.5c-.4-.5-.9-.7-1.6-.7s-1.2.2-1.6.7c-.5.4-.7 1-.7 1.7s.2 1.3.7 1.7 1 .7 1.6.7 1.2-.2 1.7-.7c.3-.3.5-.7.5-1.2h-2.2v-.7h2.9v.5z" stroke="#fff" stroke-miterlimit="10" stroke-width=".2"/><path d="m52 7.7h-2.7v1.9h2.5v.7h-2.5v1.9h2.7v.7h-3.5v-6h3.5v.7z" stroke="#fff" stroke-miterlimit="10" stroke-width=".2"/><path d="m55.3 13h-.8v-5.3h-1.7v-.7h4.1v.7h-1.7v5.3z" stroke="#fff" stroke-miterlimit="10" stroke-width=".2"/><path d="m59.9 13v-6h.8v6z" stroke="#fff" stroke-miterlimit="10" stroke-width=".2"/><path d="m64.1 13h-.8v-5.3h-1.7v-.7h4.1v.7h-1.7v5.3z" stroke="#fff" stroke-miterlimit="10" stroke-width=".2"/><path d="m73.6 12.2c-.6.6-1.3.9-2.2.9s-1.6-.3-2.2-.9-.9-1.3-.9-2.2.3-1.6.9-2.2 1.3-.9 2.2-.9 1.6.3 2.2.9.9 1.3.9 2.2-.3 1.6-.9 2.2zm-3.8-.5c.4.4 1 .7 1.6.7s1.2-.2 1.6-.7c.4-.4.7-1 .7-1.7s-.2-1.3-.7-1.7c-.4-.4-1-.7-1.6-.7s-1.2.2-1.6.7c-.4.4-.7 1-.7 1.7s.2 1.3.7 1.7z" stroke="#fff" stroke-miterlimit="10" stroke-width=".2"/><path d="m75.6 13v-6h.9l2.9 4.7v-1.2s0-3.5 0-3.5h.8v6h-.8l-3.1-4.9v1.2s0 3.7 0 3.7h-.8z" stroke="#fff" stroke-miterlimit="10" stroke-width=".2"/><path d="m68.1 21.8c-2.4 0-4.3 1.8-4.3 4.3s1.9 4.3 4.3 4.3 4.3-1.8 4.3-4.3-1.9-4.3-4.3-4.3zm0 6.8c-1.3 0-2.4-1.1-2.4-2.6s1.1-2.6 2.4-2.6 2.4 1 2.4 2.6-1.1 2.6-2.4 2.6zm-9.3-6.8c-2.4 0-4.3 1.8-4.3 4.3s1.9 4.3 4.3 4.3 4.3-1.8 4.3-4.3-1.9-4.3-4.3-4.3zm0 6.8c-1.3 0-2.4-1.1-2.4-2.6s1.1-2.6 2.4-2.6 2.4 1 2.4 2.6-1.1 2.6-2.4 2.6zm-11.1-5.5v1.8h4.3c-.1 1-.5 1.8-1 2.3s-1.6 1.3-3.3 1.3c-2.7 0-4.7-2.1-4.7-4.8s2.1-4.8 4.7-4.8 2.5.6 3.3 1.3l1.3-1.3c-1.1-1-2.5-1.8-4.5-1.8-3.6 0-6.7 3-6.7 6.6s3.1 6.6 6.7 6.6 3.4-.6 4.6-1.9c1.2-1.2 1.6-2.9 1.6-4.2s0-.8 0-1.1h-6.1zm45.4 1.4c-.4-1-1.4-2.7-3.6-2.7s-4 1.7-4 4.3 1.8 4.3 4.2 4.3 3.1-1.2 3.5-1.9l-1.4-1c-.5.7-1.1 1.2-2.1 1.2s-1.6-.4-2.1-1.3l5.7-2.4zm-5.8 1.4c0-1.6 1.3-2.5 2.2-2.5s1.4.4 1.6.9zm-4.7 4.1h1.9v-12.5h-1.9zm-3-7.3c-.4-.5-1.2-1-2.2-1-2.1 0-4.1 1.9-4.1 4.3s1.9 4.2 4.1 4.2 1.8-.5 2.2-1v.6c0 1.6-.9 2.5-2.3 2.5s-1.9-.8-2.1-1.5l-1.6.7c.5 1.1 1.7 2.5 3.8 2.5s4-1.3 4-4.4v-7.6h-1.8zm-2.2 5.9c-1.3 0-2.4-1.1-2.4-2.6s1.1-2.6 2.4-2.6 2.3 1.1 2.3 2.6-1 2.6-2.3 2.6zm24.4-11.1h-4.5v12.5h1.9v-4.7h2.6c2.1 0 4.1-1.5 4.1-3.9s-2-3.9-4.1-3.9zm.1 6h-2.7v-4.3h2.7c1.4 0 2.2 1.2 2.2 2.1s-.8 2.1-2.2 2.1zm11.5-1.8c-1.4 0-2.8.6-3.3 1.9l1.7.7c.4-.7 1-.9 1.7-.9s1.9.6 2 1.6c-.3 0-1.1-.4-1.9-.4-1.8 0-3.6 1-3.6 2.8s1.5 2.8 3.1 2.8 1.9-.6 2.4-1.2v1h1.8v-4.8c0-2.2-1.7-3.5-3.8-3.5zm-.2 6.9c-.6 0-1.5-.3-1.5-1.1s1.1-1.3 2-1.3 1.2.2 1.7.4c-.1 1.2-1.1 2-2.2 2zm10.5-6.6-2.1 5.4-2.2-5.4h-2l3.3 7.6-1.9 4.2h1.9l5.1-11.8zm-16.8 8h1.9v-12.5h-1.9z"/></g><path d="m20.7 19.4-10.6 11.3s0 0 0 0c.3 1.2 1.4 2.1 2.8 2.1s1-.1 1.5-.4 12-6.9 12-6.9l-5.6-6.1z" fill="#ea4335"/><path d="m31.5 17.5s-5.2-3-5.2-3l-5.8 5.2 5.8 5.8 5.1-3c.9-.5 1.5-1.4 1.5-2.5s-.6-2-1.5-2.5z" fill="#fbbc04"/><path d="m10.1 9.3v.7 20 .7l11-11z" fill="#4285f4"/><path d="m20.8 20 5.5-5.5-12-6.9c-.4-.3-.9-.4-1.5-.4-1.3 0-2.5.9-2.8 2.1l10.7 10.7z" fill="#34a853"/></svg>