<svg width="17" height="17" viewBox="0 0 17 17" fill="none" xmlns="http://www.w3.org/2000/svg">
<path d="M4.63184 12.1992C1.98633 9.55371 0 6.4248 0 3.84961C0 2.71582 0.395508 1.69629 1.15137 0.966797C1.67871 0.46582 2.4082 0 3.00586 0C3.49805 0 3.86719 0.360352 4.29785 0.966797L5.80957 3.08496C6.15234 3.56836 6.27539 3.9375 6.27539 4.28906C6.27539 4.60547 6.19629 4.81641 5.97656 5.21191L5.13281 6.66211C5.0625 6.78516 5.00098 6.89941 5.00098 7.01367C5.00098 7.16309 5.05371 7.29492 5.10645 7.3916C5.45801 8.09473 6.11719 8.95605 6.96973 9.80859C7.83105 10.6699 8.78906 11.4258 9.4834 11.7422C9.65918 11.8125 9.77344 11.8564 9.94043 11.8564C10.0635 11.8564 10.1514 11.8389 10.3184 11.7422L11.751 10.96C12.2256 10.6963 12.4541 10.6523 12.7441 10.6523C13.0605 10.6523 13.3154 10.7227 13.8604 11.1094L16.0752 12.6914C16.6641 13.1133 16.9014 13.4561 16.9014 13.8428C16.9014 14.335 16.6465 14.8975 15.9873 15.6445C15.3018 16.4092 14.2471 16.8926 13.043 16.8926C10.4766 16.8926 7.29492 14.8623 4.63184 12.1992Z" fill="#021C18"/>
</svg>
