<svg width="40" height="30" viewBox="0 0 40 30" fill="none" xmlns="http://www.w3.org/2000/svg">
<path opacity="0.25" d="M10.0801 29.0881C7.07206 29.0881 4.64006 27.9361 2.78406 25.6321C0.928065 23.2641 6.45518e-05 20.2241 6.45518e-05 16.5121C6.45518e-05 11.2001 1.60006 7.13612 4.80006 4.32012C8.00007 1.50412 12.3841 0.0641193 17.9521 0.000120163V7.00812C15.0081 7.07212 12.7361 7.71212 11.1361 8.92812C9.60007 10.1441 8.83207 11.6801 8.83207 13.5361C8.83207 14.1761 8.86407 14.6241 8.92807 14.8801C9.95207 14.3681 10.9761 14.1121 12.0001 14.1121C13.8561 14.1121 15.3921 14.7521 16.6081 16.0321C17.8881 17.2481 18.5281 19.0401 18.5281 21.4081C18.5281 23.5201 17.6961 25.3441 16.0321 26.8801C14.4321 28.3521 12.4481 29.0881 10.0801 29.0881ZM30.9121 29.0881C27.9041 29.0881 25.4721 27.9361 23.6161 25.6321C21.7601 23.2641 20.8321 20.2241 20.8321 16.5121C20.8321 11.2001 22.4321 7.13612 25.6321 4.32012C28.8321 1.50412 33.2161 0.0641193 38.7841 0.000120163V7.00812C35.8401 7.07212 33.5681 7.71212 31.9681 8.92812C30.4321 10.1441 29.6641 11.6801 29.6641 13.5361C29.6641 14.1761 29.6961 14.6241 29.7601 14.8801C30.7841 14.3681 31.8081 14.1121 32.8321 14.1121C34.6881 14.1121 36.2241 14.7521 37.4401 16.0321C38.7201 17.2481 39.3601 19.0401 39.3601 21.4081C39.3601 23.5201 38.5281 25.3441 36.8641 26.8801C35.2641 28.3521 33.2801 29.0881 30.9121 29.0881Z" fill="white"/>
</svg>
