<svg width="10" height="12" viewBox="0 0 10 12" fill="none" xmlns="http://www.w3.org/2000/svg">
<path d="M4.29688 2.42188C4.22363 2.42188 4.17969 2.37305 4.16992 2.30469C4.0332 1.51367 4.04297 1.48926 3.20801 1.33789C3.12988 1.32324 3.08594 1.28418 3.08594 1.21094C3.08594 1.1377 3.12988 1.09375 3.20312 1.08398C4.04785 0.922852 4.03809 0.898438 4.16992 0.12207C4.17969 0.0488281 4.22363 0 4.29688 0C4.37012 0 4.41406 0.0488281 4.42383 0.117188C4.56055 0.913086 4.55078 0.942383 5.39062 1.08398C5.45898 1.09375 5.50781 1.1377 5.50781 1.21094C5.50781 1.28418 5.46387 1.32324 5.39062 1.33789C4.55078 1.49902 4.56055 1.52344 4.42383 2.30469C4.41406 2.37305 4.37012 2.42188 4.29688 2.42188ZM1.92871 5.86914C1.82129 5.86914 1.73828 5.7959 1.72852 5.67871C1.57227 4.39453 1.51855 4.35547 0.200195 4.15039C0.0732422 4.13086 0 4.0625 0 3.9502C0 3.84277 0.0732422 3.76953 0.175781 3.75C1.51367 3.50098 1.57227 3.50098 1.72852 2.2168C1.73828 2.10449 1.82129 2.02637 1.92871 2.02637C2.03613 2.02637 2.11426 2.10449 2.12402 2.21191C2.29492 3.52539 2.33398 3.56445 3.67676 3.75C3.77441 3.76465 3.85254 3.84277 3.85254 3.9502C3.85254 4.05762 3.7793 4.13086 3.67676 4.15039C2.3291 4.39941 2.29492 4.4043 2.12402 5.69336C2.11426 5.7959 2.03125 5.86914 1.92871 5.86914ZM5.35645 11.2939C5.19043 11.2939 5.05859 11.1719 5.0293 11.001C4.64355 8.37891 4.30176 8.04199 1.7334 7.69531C1.55273 7.6709 1.43066 7.53906 1.43066 7.36816C1.43066 7.19727 1.55762 7.06055 1.7334 7.04102C4.30664 6.75293 4.67773 6.3623 5.0293 3.74023C5.05859 3.56445 5.18555 3.44238 5.35645 3.44238C5.52246 3.44238 5.64941 3.56445 5.67871 3.74023C6.05469 6.3623 6.40625 6.7334 8.97461 7.04102C9.15527 7.06543 9.28223 7.19727 9.28223 7.36816C9.28223 7.53906 9.15527 7.67578 8.97461 7.69531C6.40137 7.9834 6.03027 8.37891 5.67871 11.001C5.64941 11.1719 5.52246 11.2939 5.35645 11.2939Z" fill="#85F37F"/>
</svg>
