<svg width="14" height="16" viewBox="0 0 14 16" fill="none" xmlns="http://www.w3.org/2000/svg">
<path d="M7 15.8164C6.93229 15.8164 6.84896 15.8034 6.75 15.7773C6.65625 15.7565 6.5599 15.7201 6.46094 15.668C5.36198 15.0586 4.42969 14.5143 3.66406 14.0352C2.90365 13.5612 2.29167 13.1003 1.82812 12.6523C1.36458 12.1992 1.02865 11.7096 0.820312 11.1836C0.611979 10.6576 0.507812 10.0456 0.507812 9.34766V3.53516C0.507812 3.07682 0.598958 2.74089 0.78125 2.52734C0.963542 2.3138 1.24479 2.12891 1.625 1.97266C1.79688 1.90495 2.03646 1.8138 2.34375 1.69922C2.65104 1.57943 2.98958 1.45182 3.35938 1.31641C3.72917 1.18099 4.09896 1.04818 4.46875 0.917969C4.84375 0.782552 5.18229 0.66276 5.48438 0.558594C5.79167 0.454427 6.02865 0.373698 6.19531 0.316406C6.32552 0.279948 6.45833 0.248698 6.59375 0.222656C6.73438 0.196615 6.86979 0.183594 7 0.183594C7.13021 0.183594 7.26562 0.196615 7.40625 0.222656C7.54688 0.248698 7.67969 0.279948 7.80469 0.316406C7.97135 0.373698 8.20573 0.454427 8.50781 0.558594C8.8151 0.66276 9.15365 0.782552 9.52344 0.917969C9.89323 1.05339 10.263 1.1888 10.6328 1.32422C11.0078 1.45443 11.349 1.57682 11.6562 1.69141C11.9635 1.80599 12.2031 1.89974 12.375 1.97266C12.7552 2.12891 13.0365 2.3138 13.2188 2.52734C13.401 2.74089 13.4922 3.07682 13.4922 3.53516V9.34766C13.4922 10.0456 13.3906 10.6628 13.1875 11.1992C12.9844 11.7305 12.6536 12.2279 12.1953 12.6914C11.737 13.1549 11.125 13.6211 10.3594 14.0898C9.59896 14.5638 8.65885 15.0898 7.53906 15.668C7.4401 15.7201 7.34115 15.7565 7.24219 15.7773C7.14844 15.8034 7.06771 15.8164 7 15.8164ZM6.14062 11.5117C6.28646 11.5117 6.41927 11.4779 6.53906 11.4102C6.66406 11.3424 6.77344 11.2409 6.86719 11.1055L10.5234 5.40234C10.5755 5.31901 10.6224 5.23047 10.6641 5.13672C10.7057 5.03776 10.7266 4.94401 10.7266 4.85547C10.7266 4.65234 10.6484 4.48828 10.4922 4.36328C10.3411 4.23828 10.1693 4.17578 9.97656 4.17578C9.72135 4.17578 9.51042 4.3112 9.34375 4.58203L6.10938 9.75391L4.60938 7.84766C4.50521 7.71745 4.40365 7.6263 4.30469 7.57422C4.20573 7.52214 4.09375 7.49609 3.96875 7.49609C3.77083 7.49609 3.60156 7.56901 3.46094 7.71484C3.32552 7.85547 3.25781 8.02474 3.25781 8.22266C3.25781 8.32161 3.27604 8.41797 3.3125 8.51172C3.34896 8.60547 3.40104 8.69661 3.46875 8.78516L5.38281 11.1133C5.4974 11.2539 5.61458 11.3555 5.73438 11.418C5.85417 11.4805 5.98958 11.5117 6.14062 11.5117Z" fill="#3DAB83"/>
</svg>
